Coordinates
version=1
nRows=4
nColumns=114
inDegrees=yes

Units are S.I. units (second, meters, Newtons, ...)
If the header above contains a line with 'inDegrees', this indicates whether rotational values are in degrees (yes) or radians (no).

endheader 
time	pelvis_tilt	pelvis_list	pelvis_rotation	pelvis_tx	pelvis_ty	pelvis_tz	hip_flexion_l	hip_adduction_l	hip_rotation_l	hip_flexion_r	hip_adduction_r	hip_rotation_r	knee_angle_l	knee_angle_r	ankle_angle_l	ankle_angle_r	subtalar_angle_l	subtalar_angle_r	mtp_angle_l	mtp_angle_r	lumbar_extension	lumbar_bending	lumbar_rotation	arm_flex_l	arm_add_l	arm_rot_l	arm_flex_r	arm_add_r	arm_rot_r	elbow_flex_l	elbow_flex_r	pro_sup_l	pro_sup_r	addbrev_l/activation	addlong_l/activation	addmagDist_l/activation	addmagIsch_l/activation	addmagMid_l/activation	addmagProx_l/activation	bflh_l/activation	bfsh_l/activation	edl_l/activation	ehl_l/activation	fdl_l/activation	fhl_l/activation	gaslat_l/activation	gasmed_l/activation	glmax1_l/activation	glmax2_l/activation	glmax3_l/activation	glmed1_l/activation	glmed2_l/activation	glmed3_l/activation	glmin1_l/activation	glmin2_l/activation	glmin3_l/activation	grac_l/activation	iliacus_l/activation	perbrev_l/activation	perlong_l/activation	piri_l/activation	psoas_l/activation	recfem_l/activation	sart_l/activation	semimem_l/activation	semiten_l/activation	soleus_l/activation	tfl_l/activation	tibant_l/activation	tibpost_l/activation	vasint_l/activation	vaslat_l/activation	vasmed_l/activation	addbrev_r/activation	addlong_r/activation	addmagDist_r/activation	addmagIsch_r/activation	addmagMid_r/activation	addmagProx_r/activation	bflh_r/activation	bfsh_r/activation	edl_r/activation	ehl_r/activation	fdl_r/activation	fhl_r/activation	gaslat_r/activation	gasmed_r/activation	glmax1_r/activation	glmax2_r/activation	glmax3_r/activation	glmed1_r/activation	glmed2_r/activation	glmed3_r/activation	glmin1_r/activation	glmin2_r/activation	glmin3_r/activation	grac_r/activation	iliacus_r/activation	perbrev_r/activation	perlong_r/activation	piri_r/activation	psoas_r/activation	recfem_r/activation	sart_r/activation	semimem_r/activation	semiten_r/activation	soleus_r/activation	tfl_r/activation	tibant_r/activation	tibpost_r/activation	vasint_r/activation	vaslat_r/activation	vasmed_r/activation	
          4.20000000	         -1.21347782	        -13.06932122	         -7.77139187	         -5.66442654	          0.79209824	          0.46117958	          8.81819590	        -15.20688384	         13.32097888	         41.63843336	         15.70090232	        -18.99635370	         91.26503512	         40.86688769	        -33.43398173	         17.59257081	        -17.86592058	        -10.12963770	        -44.99857896	          4.99992223	         -8.26493502	         10.82931954	        -28.00891280	       -333.22156510	         -8.05366344	       -327.06840590	       -124.91359130	       -155.53123367	        175.81008471	         72.42409021	        139.56948066	        105.69699653	         86.13137994	          0.01005850	          0.01002041	          0.01011199	          0.01026149	          0.01006325	          0.01008214	          0.15447084	          0.01058237	          0.11118367	          0.01656046	          0.01418354	          0.01393060	          0.04166219	          0.06195809	          0.02106495	          0.03433346	          0.26530352	          0.01443460	          0.01719396	          0.01894371	          0.01410442	          0.01706261	          0.02101569	          0.01008440	          0.01018567	          0.01049869	          0.01016805	          0.14990727	          0.01012250	          0.02375579	          0.01076268	          0.01786039	          0.01473473	          0.01137730	          0.15906002	          0.03434558	          0.01442205	          0.01218776	          0.01206480	          0.01212785	          0.01658394	          0.01680850	          0.01003261	          0.01002324	          0.01012478	          0.04318520	          0.01090176	          0.01642901	          0.02751422	          0.03095839	          0.17217202	          0.11139364	          0.01241188	          0.01209547	          0.01002270	          0.01000817	          0.01001712	          0.01005851	          0.01008395	          0.01010762	          0.01025924	          0.01032859	          0.01044477	          0.01009846	          0.02487392	          0.01014291	          0.01007448	          0.58539468	          0.02411707	          0.45840131	          0.03019089	          0.01000838	          0.01002965	          0.01442553	          0.29110252	          0.46841545	          0.31630712	          0.01011714	          0.03716423	          0.01008832	
          4.21000000	         -0.61330541	        -13.80666721	         -9.02186873	         -5.62756762	          0.79312369	          0.46189177	         12.69109178	        -16.04893041	         13.57991292	         39.92084346	         16.70328964	        -20.46921021	         94.87660151	         42.72874345	        -31.58528499	         16.64727961	        -18.35018864	        -11.36415730	        -39.68008703	          4.46859909	         -8.60197169	         12.01497002	        -26.76114537	       -342.89885896	         -7.46813652	       -327.35431357	       -132.82294336	       -154.91180841	        174.69321381	         69.77843596	        139.41817005	        105.84080587	         85.95107381	          0.01012240	          0.01131466	          0.01021923	          0.01043837	          0.01011938	          0.01019449	          0.16824195	          0.01976948	          0.12719541	          0.01702181	          0.01205198	          0.01175672	          0.03479189	          0.05163224	          0.01756914	          0.02861909	          0.22114442	          0.01209022	          0.01436644	          0.01580849	          0.01217096	          0.01448383	          0.01757543	          0.01149784	          0.01020795	          0.01353964	          0.01457445	          0.12493876	          0.01018352	          0.01991069	          0.02231141	          0.01729558	          0.03521124	          0.01044000	          0.13258752	          0.03136314	          0.01206319	          0.01024460	          0.01008424	          0.01016747	          0.01424995	          0.01424297	          0.01362735	          0.01096900	          0.01431239	          0.03601163	          0.01333838	          0.01413899	          0.12889886	          0.14530975	          0.14353069	          0.09284583	          0.01035889	          0.01008961	          0.01030536	          0.01916267	          0.01067611	          0.01017491	          0.01037260	          0.01051930	          0.01026427	          0.01037464	          0.01130345	          0.01385293	          0.02073498	          0.01014664	          0.01005977	          0.48790782	          0.02010339	          0.38200370	          0.02518270	          0.01661505	          0.01102666	          0.01202227	          0.24260884	          0.61570465	          0.26359706	          0.09533421	          0.27512558	          0.12247990	
          4.22000000	          0.10589554	        -13.96197486	        -10.22188842	         -5.59292399	          0.79228370	          0.46167757	         16.65940574	        -16.04193182	         13.86154536	         38.49722586	         16.71519218	        -19.81805000	         98.23049875	         46.49809068	        -29.93215671	         18.12155136	        -20.05983433	        -11.48630888	        -34.98689086	          3.91163361	         -9.46025548	         12.62188391	        -25.50339475	       -348.39899274	         -8.57794012	       -327.07701752	       -138.03194397	       -154.27000848	        171.29267286	         67.95463861	        139.78235223	        106.17185830	         85.74350029	          0.13942716	          0.26488230	          0.01722997	          0.01052535	          0.08678099	          0.04741003	          0.14024319	          0.15427749	          0.13728198	          0.06390176	          0.01053583	          0.01015824	          0.02907216	          0.04302728	          0.01464640	          0.02385211	          0.18430597	          0.01011217	          0.01198788	          0.01318149	          0.01044033	          0.01217826	          0.01468690	          0.02009017	          0.01914777	          0.02405714	          0.04060289	          0.10413052	          0.02778034	          0.01774741	          0.13793949	          0.01459436	          0.02938196	          0.01004534	          0.11091487	          0.03928916	          0.01012635	          0.01005003	          0.01001446	          0.01003292	          0.01194109	          0.01195268	          0.01420216	          0.02546069	          0.01213703	          0.03003118	          0.04685310	          0.01256224	          0.10744855	          0.12116784	          0.13038824	          0.07739679	          0.01002150	          0.01001197	          0.01619564	          0.64494629	          0.05267742	          0.21171976	          0.07975749	          0.06833699	          0.08194227	          0.06677647	          0.01879277	          0.01215228	          0.01728430	          0.01177583	          0.01172865	          0.51604953	          0.01675701	          0.31835355	          0.02100507	          0.04481742	          0.01739453	          0.01002271	          0.20224598	          0.51324112	          0.21967780	          0.10775583	          0.38978319	          0.18399454	
          4.23000000	          0.51078202	        -13.66639568	        -11.82951172	         -5.55925254	          0.79037375	          0.46192387	         20.79927634	        -15.58172374	         13.74973642	         37.00663527	         16.48586440	        -18.46742406	        100.94631720	         50.18324424	        -28.49324141	         20.65653672	        -22.43231244	        -10.95221756	        -30.82719026	          3.04291791	        -10.05280350	         12.67696843	        -23.89239963	       -352.09082618	        -10.49398830	       -327.18934225	       -141.81823498	       -153.68502897	        167.40395484	         67.00754671	        140.37500852	        106.42217744	         85.43737180	          0.13121807	          0.26405840	          0.01446876	          0.01008834	          0.07240174	          0.46282396	          0.11688380	          0.12878334	          0.24551971	          0.05357929	          0.01046248	          0.01025126	          0.02431023	          0.03585641	          0.01221035	          0.01987929	          0.15360248	          0.01002211	          0.01003590	          0.01099347	          0.01014580	          0.01032974	          0.01227866	          0.54386430	          0.08821150	          0.02492139	          0.08471142	          0.08679331	          0.67572658	          0.13573488	          0.17243041	          0.01222641	          0.02449816	          0.01008734	          0.09244739	          0.14767845	          0.01009342	          0.01006207	          0.01001885	          0.01004149	          0.01005284	          0.01007589	          0.01189462	          0.02125365	          0.01021959	          0.02504563	          0.03910166	          0.01134241	          0.08955413	          0.10099122	          0.11538152	          0.07400297	          0.01027337	          0.01010064	          0.67196934	          0.65399380	          0.04393124	          0.17651785	          0.06666617	          0.06213145	          0.06861704	          0.06448882	          0.04338472	          0.01030505	          0.01440886	          0.01006704	          0.01002790	          0.53614646	          0.01396886	          0.26550624	          0.01752798	          0.03738989	          0.01457347	          0.06492055	          0.23019291	          0.47380538	          0.18307366	          0.28301439	          0.52518860	          0.35540498	
